# xmcd CD database file
#
# Track frame offsets:
#	150
#	28744
#	44310
#	63319
#	84612
#	97096
#
# Disc length: 1509 seconds
#
# Revision: 0
# Processed by: cddbd v1.5.1PL2 Copyright (c) Steve Scherf et al.
# Submitted via: CDex 1.51
#
DISCID=4a05e306
DTITLE=Brendan Wires - Little Girl Smile
DYEAR=2006
DGENRE=Jazz
TTITLE0=Little Girl Smile
TTITLE1=Hirundo Rustica
TTITLE2=The Waiting
TTITLE3=Root Beer Float
TTITLE4=I Will
TTITLE5=Cold Grape
EXTD=YEAR: 2006
EXTT0=
EXTT1=
EXTT2=
EXTT3=
EXTT4=
EXTT5=
PLAYORDER=
